# xmcd
#
# Track frame offsets: 
#        183
#        15318
#        38560
#        57195
#        74323
#        97973
#        131613
#        151440
#        167045
#        187965
#        205845
#        228695
#        256885
#        277223
#        302840
#        323745
#
# Disc length: 4538 seconds
#
# Revision: 19
# Processed by: cddbd v1.5.2PL0 Copyright (c) Steve Scherf et al.
# Submitted via: ExactAudioCopyFreeDBPlugin 1.0
#
DISCID=d711b810
DTITLE=James Brown - Star Time [box set]
DYEAR=1991
DGENRE=Soul
TTITLE0=There it Is, Part 1
TTITLE1=Public Enemy #1, Part 1
TTITLE2=Get on the Good Foot
TTITLE3=I Got a Bag of My Own
TTITLE4=Doing it to Death
TTITLE5=The Payback
TTITLE6=Papa Don't Take No Mess, Part 1
TTITLE7=Stoned to the Bone, Part 1
TTITLE8=My Thang
TTITLE9=Funky President (People It's Bad)
TTITLE10=Hot (I Need to Be Loved, Loved, Loved)
TTITLE11=Get Up Offa That Thing (Release the Pressure)
TTITLE12=Body Heat, Part 1
TTITLE13=It's Too Funky in Here
TTITLE14=Rapp Payback (Where Iz Moses)
TTITLE15=Unity, Part 1 (with Afrika Bambaataa)
EXTD=YEAR: 1991
EXTT0=
EXTT1=
EXTT2=
EXTT3=
EXTT4=
EXTT5=
EXTT6=
EXTT7=
EXTT8=
EXTT9=
EXTT10=
EXTT11=
EXTT12=
EXTT13=
EXTT14=
EXTT15=
PLAYORDER=
